<svg xmlns="http://www.w3.org/2000/svg" xmlns:xlink="http://www.w3.org/1999/xlink" width="60.543" height="60.543" viewBox="0 0 60.543 60.543"><defs><style>.a{fill:url(#a);}</style><linearGradient id="a" x2="0.5" y2="1" gradientUnits="objectBoundingBox"><stop offset="0" stop-color="#39a9dd"/><stop offset="1" stop-color="#2c4491"/></linearGradient></defs><path class="a" d="M158.052,144H133.625l12.213,10.469Zm0,0" transform="translate(-115.567 -124.54)"/><path class="a" d="M134.055,165.1a1.079,1.079,0,0,1-.7-.261L120,153.391v20.353h28.109V153.391l-13.351,11.444A1.079,1.079,0,0,1,134.055,165.1Zm0,0" transform="translate(-103.783 -132.661)"/><path class="a" d="M30.271,0A30.271,30.271,0,1,0,60.543,30.271,30.272,30.272,0,0,0,30.271,0ZM46.488,42.164a1.081,1.081,0,0,1-1.081,1.081H15.136a1.081,1.081,0,0,1-1.081-1.081V18.379A1.081,1.081,0,0,1,15.136,17.3H45.407a1.081,1.081,0,0,1,1.081,1.081Zm0,0"/></svg>