<svg xmlns="http://www.w3.org/2000/svg" xmlns:xlink="http://www.w3.org/1999/xlink" width="66.507" height="66.507" viewBox="0 0 66.507 66.507"><defs><style>.a{fill:url(#a);}</style><linearGradient id="a" x1="1.408" y1="1.293" x2="-0.949" y2="0.291" gradientUnits="objectBoundingBox"><stop offset="0" stop-color="#2c4491"/><stop offset="0.347" stop-color="#3167ab"/><stop offset="1" stop-color="#39a9dd"/></linearGradient></defs><path class="a" d="M66.507,33.254A33.254,33.254,0,1,0,33.254,66.507c.195,0,.39,0,.585-.013V40.619H26.694V32.292h7.144V26.161c0-7.105,4.339-10.976,10.678-10.976a58.036,58.036,0,0,1,6.4.325v7.43H46.555c-3.442,0-4.118,1.637-4.118,4.04v5.3h8.248l-1.078,8.326h-7.17V65.221A33.264,33.264,0,0,0,66.507,33.254Z"/></svg>