<svg xmlns="http://www.w3.org/2000/svg" width="66.507" height="66.507" viewBox="0 0 66.507 66.507"><defs><style>.a{fill:#2d455d;}</style></defs><path class="a" d="M220.293,213.647A6.647,6.647,0,1,1,213.647,207,6.647,6.647,0,0,1,220.293,213.647Zm0,0" transform="translate(-180.393 -180.393)"/><path class="a" d="M167.377,140.076a6.6,6.6,0,0,0-3.784-3.784,11.033,11.033,0,0,0-3.7-.686c-2.1-.1-2.734-.117-8.058-.117s-5.955.02-8.058.116a11.04,11.04,0,0,0-3.7.687,6.606,6.606,0,0,0-3.785,3.784,11.037,11.037,0,0,0-.686,3.7c-.1,2.1-.117,2.733-.117,8.058s.021,5.955.117,8.058a11.033,11.033,0,0,0,.686,3.7,6.6,6.6,0,0,0,3.784,3.784,11.019,11.019,0,0,0,3.7.687c2.1.1,2.733.116,8.057.116s5.956-.02,8.058-.116a11.019,11.019,0,0,0,3.7-.687,6.6,6.6,0,0,0,3.784-3.784,11.042,11.042,0,0,0,.687-3.7c.1-2.1.116-2.734.116-8.058s-.02-5.955-.116-8.058A11.019,11.019,0,0,0,167.377,140.076Zm-15.544,22a10.239,10.239,0,1,1,10.239-10.239A10.239,10.239,0,0,1,151.832,162.075Zm10.644-18.49a2.393,2.393,0,1,1,2.393-2.393A2.393,2.393,0,0,1,162.476,143.585Zm0,0" transform="translate(-118.579 -118.582)"/><path class="a" d="M33.254,0A33.254,33.254,0,1,0,66.507,33.254,33.257,33.257,0,0,0,33.254,0Zm18.98,41.126a14.01,14.01,0,0,1-.887,4.635,9.764,9.764,0,0,1-5.585,5.585,14.019,14.019,0,0,1-4.635.887c-2.036.093-2.687.115-7.872.115s-5.836-.022-7.873-.115a14.019,14.019,0,0,1-4.635-.887,9.764,9.764,0,0,1-5.585-5.585,14.006,14.006,0,0,1-.887-4.635c-.094-2.037-.116-2.687-.116-7.873s.022-5.836.115-7.872a14.011,14.011,0,0,1,.887-4.635,9.77,9.77,0,0,1,5.585-5.585,14.023,14.023,0,0,1,4.635-.887c2.036-.093,2.687-.115,7.872-.115s5.836.022,7.872.116a14.025,14.025,0,0,1,4.635.886,9.766,9.766,0,0,1,5.585,5.585,14.008,14.008,0,0,1,.888,4.635c.093,2.036.115,2.687.115,7.872S52.327,39.09,52.233,41.126Zm0,0"/></svg>