<svg xmlns="http://www.w3.org/2000/svg" width="66.507" height="66.507" viewBox="0 0 66.507 66.507"><defs><style>.a{fill:#2d455d;}</style></defs><path class="a" d="M33.254,0A33.254,33.254,0,1,0,66.507,33.254,33.257,33.257,0,0,0,33.254,0ZM23.591,50.27h-8.1V25.9h8.1ZM19.541,22.578h-.053a4.192,4.192,0,0,1-4.475-4.209c0-2.391,1.811-4.21,4.582-4.21a4.209,4.209,0,0,1,4.528,4.21c0,2.338-1.758,4.209-4.582,4.209ZM52.793,50.27H44.7V37.235c0-3.276-1.173-5.51-4.1-5.51a4.433,4.433,0,0,0-4.155,2.962,5.546,5.546,0,0,0-.266,1.976V50.27h-8.1s.106-22.08,0-24.365h8.1v3.45a8.04,8.04,0,0,1,7.3-4.022c5.328,0,9.324,3.482,9.324,10.966Zm0,0"/></svg>