<svg xmlns="http://www.w3.org/2000/svg" width="60.26" height="60.26" viewBox="0 0 60.26 60.26"><defs><style>.a{fill:#2d455d;}</style></defs><g transform="translate(-46 -46)"><circle class="a" cx="8.421" cy="8.421" r="8.421" transform="translate(67.71 62.658)"/><path class="a" d="M76.13,46a30.13,30.13,0,1,0,30.13,30.13A30.13,30.13,0,0,0,76.13,46Zm.84,50.02a1.267,1.267,0,0,1-1.681,0c-.584-.519-14.316-12.869-14.316-24.832A15.23,15.23,0,0,1,76.13,55.923h0A15.229,15.229,0,0,1,91.287,71.189C91.287,83.149,77.555,95.5,76.971,96.02Z"/></g></svg>