<svg xmlns="http://www.w3.org/2000/svg" width="58.568" height="58.568" viewBox="0 0 58.568 58.568"><defs><style>.a{fill:#c36a58;}</style></defs><path class="a" d="M218.707,212.853A5.853,5.853,0,1,1,212.853,207,5.853,5.853,0,0,1,218.707,212.853Zm0,0" transform="translate(-183.569 -183.569)"/><path class="a" d="M163.57,139.528a5.815,5.815,0,0,0-3.333-3.333,9.715,9.715,0,0,0-3.26-.6c-1.852-.084-2.407-.1-7.1-.1s-5.244.018-7.1.1a9.722,9.722,0,0,0-3.26.6,5.818,5.818,0,0,0-3.333,3.333,9.72,9.72,0,0,0-.6,3.261c-.084,1.852-.1,2.407-.1,7.1s.018,5.244.1,7.1a9.716,9.716,0,0,0,.6,3.26,5.815,5.815,0,0,0,3.333,3.333,9.7,9.7,0,0,0,3.261.6c1.852.084,2.406.1,7.1.1s5.245-.018,7.1-.1a9.7,9.7,0,0,0,3.261-.6,5.815,5.815,0,0,0,3.333-3.333,9.724,9.724,0,0,0,.6-3.26c.084-1.852.1-2.407.1-7.1s-.018-5.244-.1-7.1A9.7,9.7,0,0,0,163.57,139.528ZM149.881,158.9a9.017,9.017,0,1,1,9.017-9.017A9.017,9.017,0,0,1,149.881,158.9Zm9.373-16.283a2.107,2.107,0,1,1,2.107-2.107A2.107,2.107,0,0,1,159.254,142.618Zm0,0" transform="translate(-120.597 -120.6)"/><path class="a" d="M29.284,0A29.284,29.284,0,1,0,58.568,29.284,29.287,29.287,0,0,0,29.284,0ZM46,36.217a12.337,12.337,0,0,1-.782,4.082A8.6,8.6,0,0,1,40.3,45.217,12.346,12.346,0,0,1,36.217,46c-1.793.082-2.366.1-6.933.1s-5.14-.02-6.933-.1a12.346,12.346,0,0,1-4.081-.782A8.6,8.6,0,0,1,13.352,40.3a12.334,12.334,0,0,1-.782-4.081c-.083-1.794-.1-2.366-.1-6.933s.019-5.14.1-6.933a12.338,12.338,0,0,1,.781-4.082,8.6,8.6,0,0,1,4.918-4.918,12.349,12.349,0,0,1,4.082-.782c1.793-.082,2.366-.1,6.933-.1s5.14.02,6.933.1a12.351,12.351,0,0,1,4.082.781,8.6,8.6,0,0,1,4.918,4.918A12.336,12.336,0,0,1,46,22.351c.082,1.793.1,2.366.1,6.933S46.08,34.424,46,36.217Zm0,0"/></svg>