<svg xmlns="http://www.w3.org/2000/svg" width="58.568" height="58.568" viewBox="0 0 58.568 58.568"><defs><style>.a{fill:#c36a58;}</style></defs><path class="a" d="M29.284,0A29.284,29.284,0,1,0,58.568,29.284,29.287,29.287,0,0,0,29.284,0Zm-8.51,44.269H13.642V22.813h7.132ZM17.209,19.883h-.046a3.717,3.717,0,1,1,.094-7.414,3.719,3.719,0,1,1-.047,7.414ZM46.491,44.269H39.36V32.79c0-2.885-1.033-4.852-3.613-4.852a3.9,3.9,0,0,0-3.659,2.608,4.884,4.884,0,0,0-.235,1.74V44.269H24.721s.093-19.444,0-21.457h7.132v3.038a7.08,7.08,0,0,1,6.427-3.542c4.692,0,8.211,3.067,8.211,9.657Zm0,0"/></svg>