<svg id="Capa_1" data-name="Capa 1" xmlns="http://www.w3.org/2000/svg" viewBox="0 0 58.57 58.58"><defs><style>.cls-1{fill:#c36a58;}.cls-2{fill:#d1e3ef;}</style></defs><path class="cls-1" d="M51.5,48.31A22.11,22.11,0,0,1,48.87,51a34.35,34.35,0,0,1-4.1,3.12,27.21,27.21,0,0,1-9.18,3.79,29,29,0,0,1-3.83.57c-.11,0-.23,0-.3.11H27c-.1-.17-.27-.1-.42-.12-.92-.13-1.85-.22-2.76-.4a28.79,28.79,0,0,1-12.46-5.61,26.8,26.8,0,0,1-4.3-4.15A1.1,1.1,0,0,1,8,47.92H50.84A.73.73,0,0,1,51.5,48.31Z" transform="translate(0 0.01)"/><path class="cls-1" d="M0,27a13.84,13.84,0,0,0,.34-2.22,23.68,23.68,0,0,1,1.23-4.89,13.08,13.08,0,0,1,2.5-.1H30.52c.21,0,.42.06.48.32-1.16.51-2.36.9-3.53,1.38-4.08,1.65-8.18,3.23-12.28,4.84-1.22.48-2.45,1-3.66,1.45-.51.22-1,.5-1,1.15s.48,1,1,1.28a.71.71,0,0,0,.16.07l7.41,2.48a8.74,8.74,0,0,1,.52,1.67H1.79a2.78,2.78,0,0,0-1.27.25c-.06-.31-.11-.63-.18-.94A17.5,17.5,0,0,0,0,31.57Z" transform="translate(0 0.01)"/><path class="cls-1" d="M31,20.11c-.06-.26-.27-.3-.48-.32H4.07a13.08,13.08,0,0,0-2.5.1,24.24,24.24,0,0,1,2.92-6.17A28.38,28.38,0,0,1,23.28.65c9.93-2,18.71.54,26.17,7.43A28.38,28.38,0,0,1,56.8,19.24c.09.25.14.51.21.77a18.29,18.29,0,0,0-2.67-.11c-1.56,0-3.12,0-4.68,0-2.25,0-4.49-.14-6.73.11.18-1,.39-2,.56-3a.94.94,0,0,0-1.13-1.21,4.69,4.69,0,0,0-1.26.33Z" transform="translate(0 0.01)"/><path class="cls-1" d="M7.06,48.29a24.94,24.94,0,0,1-3.68-5.35A27.11,27.11,0,0,1,.52,34.68a2.78,2.78,0,0,1,1.27-.25H19.57c.45,1.45.9,2.9,1.37,4.34a37.16,37.16,0,0,0,1.16,3.57c.32.74.84.83,1.43.29s1-1,1.56-1.42l3.05-2.73.28.2C30.71,40.44,33,42.21,35.31,44a1.87,1.87,0,0,0,3.07-1.09c.19-.85.34-1.71.51-2.57L40,34.77a3.74,3.74,0,0,1,.67-.1c5.78,0,11.56,0,17.35,0a27.16,27.16,0,0,1-3.21,8.9,24.13,24.13,0,0,1-3.34,4.74.73.73,0,0,0-.66-.38H8A1.1,1.1,0,0,0,7.06,48.29Z" transform="translate(0 0.01)"/><path class="cls-1" d="M58.05,34.67c-5.79,0-11.57,0-17.35,0a3.74,3.74,0,0,0-.67.1,4.4,4.4,0,0,1,0-.51c.45-2.25.89-4.5,1.34-6.75.5-2.5,1-5,1.51-7.49,2.24-.25,4.48-.07,6.73-.11,1.56,0,3.12,0,4.68,0A18.29,18.29,0,0,1,57,20a40.74,40.74,0,0,1,1,4,25.87,25.87,0,0,1,.51,6.39A21.38,21.38,0,0,1,58.05,34.67Z" transform="translate(0 0.01)"/><path class="cls-2" d="M19.05,32.76a8.93,8.93,0,0,0,1.81-1.08q8-5,16-10.14a.33.33,0,0,1,.1-.06c.28-.08.62-.42.86,0s-.14.56-.36.76c-1.5,1.36-3,2.73-4.53,4.08-2.06,1.85-4.14,3.69-6.2,5.53L24,34.31c-.52.49-.49.5.06.93l4.11,3.24-3.05,2.73c-.53.47-1,.95-1.56,1.42s-1.11.45-1.43-.29a37.16,37.16,0,0,1-1.16-3.57c-.47-1.44-.92-2.89-1.37-4.34A8.74,8.74,0,0,0,19.05,32.76Z" transform="translate(0 0.01)"/></svg>