<svg xmlns="http://www.w3.org/2000/svg" width="58.568" height="58.568" viewBox="0 0 58.568 58.568"><defs><style>.a{fill:#c36a58;}</style></defs><path class="a" d="M29.284,0A29.284,29.284,0,1,0,58.568,29.284,29.287,29.287,0,0,0,29.284,0ZM43.975,22.406v3.965a13.836,13.836,0,0,1-8.467-2.877l.028,12.2a10.223,10.223,0,0,1-3.067,7.275,10.437,10.437,0,0,1-5.83,2.916,10.746,10.746,0,0,1-1.575.116,10.472,10.472,0,0,1-6.418-2.17,10.649,10.649,0,0,1-.987-.862,10.261,10.261,0,0,1-.463-14.15,10.471,10.471,0,0,1,7.868-3.519,10.748,10.748,0,0,1,1.575.116v5.544a4.936,4.936,0,1,0,3.4,4.69l.007-8.173V12.562H35.5a8.452,8.452,0,0,0,8.457,8.374s.017,0,.016,0v1.471Z"/></svg>