<svg xmlns="http://www.w3.org/2000/svg" width="58.568" height="58.568" viewBox="0 0 58.568 58.568"><defs><style>.a{fill:#c36a58;}</style></defs><path class="a" d="M29.284,0A29.284,29.284,0,1,0,58.568,29.284,29.287,29.287,0,0,0,29.284,0ZM42.655,22.833q.019.432.019.869c0,8.882-6.761,19.124-19.124,19.124h0a19.026,19.026,0,0,1-10.3-3.019,13.671,13.671,0,0,0,1.6.093A13.487,13.487,0,0,0,23.2,37.022a6.729,6.729,0,0,1-6.279-4.669,6.7,6.7,0,0,0,3.036-.115,6.723,6.723,0,0,1-5.392-6.589c0-.03,0-.058,0-.086a6.675,6.675,0,0,0,3.044.841,6.727,6.727,0,0,1-2.081-8.973,19.083,19.083,0,0,0,13.855,7.023,6.725,6.725,0,0,1,11.454-6.13A13.482,13.482,0,0,0,45.1,16.693a6.748,6.748,0,0,1-2.956,3.718,13.405,13.405,0,0,0,3.86-1.059,13.659,13.659,0,0,1-3.353,3.481Zm0,0"/></svg>