<svg xmlns="http://www.w3.org/2000/svg" width="66.13" height="66.13" viewBox="0 0 66.13 66.13"><defs><style>.a{fill:#2d455d;}</style></defs><g transform="translate(-58.5 -58.5)"><path class="a" d="M574.858,528.7a.669.669,0,0,0,.175-.544,2.123,2.123,0,0,0-.3-1.1,2.1,2.1,0,0,0-.841-.793,2.73,2.73,0,0,0-2.4-.011,2.262,2.262,0,0,0-.861.749,1.917,1.917,0,0,0-.326,1.111v.726h3.864A1.232,1.232,0,0,0,574.858,528.7Z" transform="translate(-476.724 -435.413)"/><path class="a" d="M91.565,58.5A33.065,33.065,0,1,0,124.63,91.565,33.065,33.065,0,0,0,91.565,58.5ZM80.046,89.968a.507.507,0,0,1-.069.178l-3.383,9.016a.564.564,0,0,1-.343.368,1.494,1.494,0,0,1-.557.1,1.479,1.479,0,0,1-.6-.111.6.6,0,0,1-.339-.333l-1.923-5.729-1.88,5.661a.629.629,0,0,1-.361.389,1.518,1.518,0,0,1-.623.122,1.289,1.289,0,0,1-.549-.111.681.681,0,0,1-.35-.4l-3.385-8.973c-.03-.073-.055-.144-.077-.211a.553.553,0,0,1-.033-.167.644.644,0,0,1,.241-.5,1.938,1.938,0,0,1,.579-.343,1.754,1.754,0,0,1,.645-.133.951.951,0,0,1,.437.1.506.506,0,0,1,.262.322l2.427,6.906,1.858-6.129a.627.627,0,0,1,.328-.422,1.282,1.282,0,0,1,.481-.089,1.349,1.349,0,0,1,.5.089.627.627,0,0,1,.328.422l1.814,6.174,2.449-6.951a.621.621,0,0,1,.678-.422,1.913,1.913,0,0,1,.645.122,1.68,1.68,0,0,1,.579.343.7.7,0,0,1,.241.533A.98.98,0,0,1,80.046,89.968Zm4.089,8.821a.7.7,0,0,1-.343.549,1.383,1.383,0,0,1-.834.251,1.321,1.321,0,0,1-.834-.251.7.7,0,0,1-.323-.549V89.566a.646.646,0,0,1,.323-.558,1.493,1.493,0,0,1,.834-.216,1.54,1.54,0,0,1,.834.216.642.642,0,0,1,.343.558ZM82.953,87.007a1.774,1.774,0,1,1,1.774-1.774A1.774,1.774,0,0,1,82.953,87.007Zm6.217,13.587a6.917,6.917,0,0,1-.343,2.266,3.261,3.261,0,0,1-1.056,1.551,2.846,2.846,0,0,1-1.8.556,1.155,1.155,0,0,1-.946-.324,1.157,1.157,0,0,1,.009-1.467.847.847,0,0,1,.646-.289.971.971,0,0,0,.767-.289,1.483,1.483,0,0,0,.323-.81,9.582,9.582,0,0,0,.069-1.192V89.578a.66.66,0,0,1,.322-.567,1.406,1.406,0,0,1,.812-.22,1.559,1.559,0,0,1,.856.22.653.653,0,0,1,.343.567ZM88.017,87.033A1.785,1.785,0,1,1,89.8,85.247a1.785,1.785,0,0,1-1.785,1.785ZM94.472,97.1a3.35,3.35,0,0,0,2.125.649,3.224,3.224,0,0,0,1.294-.221,8.475,8.475,0,0,0,.84-.421,1.275,1.275,0,0,1,.636-.2.742.742,0,0,1,.5.177,1.251,1.251,0,0,1,.317.42.838.838,0,0,1-.352,1.173,3.86,3.86,0,0,1-1.3.675,6.461,6.461,0,0,1-2,.275,6.352,6.352,0,0,1-2.725-.553,4.588,4.588,0,0,1-1.862-1.531,3.956,3.956,0,0,1-.681-2.312v-2.1a3.8,3.8,0,0,1,.646-2.147,5,5,0,0,1,6.324-1.626A4.288,4.288,0,0,1,99.88,90.8a3.72,3.72,0,0,1,.624,2.124,2.285,2.285,0,0,1-.295,1.327,1.207,1.207,0,0,1-.773.487,5.46,5.46,0,0,1-1,.089H93.646v.509a2.125,2.125,0,0,0,.829,1.759Zm22.876-16.464c-2.316,3.379-4.633,6.781-6.954,10.171l4.249,6.225a1.019,1.019,0,0,1,.112.261,1.252,1.252,0,0,1,.037.261,1.272,1.272,0,0,1,0,.3.982.982,0,0,1-.149.373,1.776,1.776,0,0,1-.261.336,2.65,2.65,0,0,1-.374.336,3,3,0,0,1-.448.261,3.414,3.414,0,0,1-.412.187,2.758,2.758,0,0,1-.373.112,1.214,1.214,0,0,1-.224.037,1.109,1.109,0,0,1-.3-.037,1.974,1.974,0,0,1-.261-.075,1.244,1.244,0,0,1-.262-.112,1.07,1.07,0,0,1-.183-.148c-.141-.142-1.511-2.22-3.358-5.073l-3.357,5.15a.734.734,0,0,1-.149.149,1.249,1.249,0,0,1-.336.149,1.276,1.276,0,0,1-.224.075.979.979,0,0,1-.336,0,2.763,2.763,0,0,1-.523-.112,2.924,2.924,0,0,1-.522-.224,3.064,3.064,0,0,1-.6-.448,2.038,2.038,0,0,1-.373-.412,1.547,1.547,0,0,1-.149-.3,1.022,1.022,0,0,1-.075-.3.915.915,0,0,1,.037-.336.961.961,0,0,1,.187-.336c.181-.216,1.833-2.66,4.21-6.2-2.625-3.822-4.382-6.393-4.564-6.612a1.015,1.015,0,0,1-.224-.448,1,1,0,0,1,0-.373,1.03,1.03,0,0,1,.075-.224,1.682,1.682,0,0,1,.224-.373,2.173,2.173,0,0,1,.336-.336,3.524,3.524,0,0,1,.634-.448,2.346,2.346,0,0,1,.784-.3,1.936,1.936,0,0,1,.635,0,.769.769,0,0,1,.412.149.618.618,0,0,1,.149.187l3.731,5.562c3.311-5.285,5.841-9.087,6.19-9.295a1.855,1.855,0,0,1,.448-.186,1.677,1.677,0,0,1,.56-.038,2.112,2.112,0,0,1,.635.187,3.188,3.188,0,0,1,.968.6,1.585,1.585,0,0,1,.523.709,1.081,1.081,0,0,1,.037.56,1.05,1.05,0,0,1-.185.411Z" transform="translate(0 0)"/></g></svg>