<svg xmlns="http://www.w3.org/2000/svg" width="58.236" height="58.236" viewBox="0 0 58.236 58.236"><defs><style>.a{fill:#c36a58;}</style></defs><path class="a" d="M574.314,528.376a.589.589,0,0,0,.154-.479,1.87,1.87,0,0,0-.267-.969,1.847,1.847,0,0,0-.741-.7,2.4,2.4,0,0,0-2.111-.01,1.992,1.992,0,0,0-.758.659,1.688,1.688,0,0,0-.287.978v.639h3.4A1.086,1.086,0,0,0,574.314,528.376Z" transform="translate(-539.411 -497.741)"/><path class="a" d="M87.618,58.5a29.118,29.118,0,1,0,29.118,29.118A29.117,29.117,0,0,0,87.618,58.5ZM77.474,86.212a.447.447,0,0,1-.06.157l-2.979,7.94a.5.5,0,0,1-.3.324,1.444,1.444,0,0,1-1.02-.01.53.53,0,0,1-.3-.293l-1.693-5.045L69.466,94.27a.554.554,0,0,1-.318.342,1.337,1.337,0,0,1-.548.108,1.135,1.135,0,0,1-.484-.1.6.6,0,0,1-.308-.352l-2.981-7.9c-.026-.065-.048-.127-.068-.186a.487.487,0,0,1-.029-.147.567.567,0,0,1,.212-.44,1.706,1.706,0,0,1,.51-.3,1.544,1.544,0,0,1,.568-.117.838.838,0,0,1,.385.088.446.446,0,0,1,.231.284l2.137,6.082,1.636-5.4a.553.553,0,0,1,.288-.372,1.129,1.129,0,0,1,.423-.078,1.188,1.188,0,0,1,.443.078.552.552,0,0,1,.288.372l1.6,5.437,2.156-6.121a.547.547,0,0,1,.6-.371,1.685,1.685,0,0,1,.568.107,1.479,1.479,0,0,1,.51.3.615.615,0,0,1,.212.469A.863.863,0,0,1,77.474,86.212Zm3.6,7.768a.616.616,0,0,1-.3.484,1.218,1.218,0,0,1-.735.221,1.164,1.164,0,0,1-.735-.221.619.619,0,0,1-.284-.484V85.857a.568.568,0,0,1,.284-.491,1.315,1.315,0,0,1,.735-.19,1.356,1.356,0,0,1,.735.19.565.565,0,0,1,.3.491ZM80.034,83.6A1.562,1.562,0,1,1,81.6,82.042,1.562,1.562,0,0,1,80.034,83.6Zm5.475,11.965a6.092,6.092,0,0,1-.3,2,2.872,2.872,0,0,1-.93,1.365,2.506,2.506,0,0,1-1.586.489,1.017,1.017,0,0,1-.833-.285,1.019,1.019,0,0,1,.008-1.292.746.746,0,0,1,.568-.255.855.855,0,0,0,.675-.255,1.306,1.306,0,0,0,.284-.714,8.436,8.436,0,0,0,.06-1.05v-9.7a.582.582,0,0,1,.284-.5,1.238,1.238,0,0,1,.715-.194,1.373,1.373,0,0,1,.754.194.575.575,0,0,1,.3.5ZM84.494,83.627a1.572,1.572,0,1,1,1.572-1.572,1.572,1.572,0,0,1-1.572,1.572Zm5.684,8.862a2.95,2.95,0,0,0,1.872.571,2.839,2.839,0,0,0,1.14-.195,7.462,7.462,0,0,0,.74-.371,1.123,1.123,0,0,1,.56-.175.653.653,0,0,1,.44.156,1.1,1.1,0,0,1,.279.37.738.738,0,0,1-.31,1.033,3.4,3.4,0,0,1-1.149.594,5.69,5.69,0,0,1-1.76.242,5.593,5.593,0,0,1-2.4-.487,4.041,4.041,0,0,1-1.64-1.349,3.484,3.484,0,0,1-.6-2.036V88.991a3.345,3.345,0,0,1,.569-1.89,4.4,4.4,0,0,1,5.569-1.432,3.776,3.776,0,0,1,1.451,1.277,3.276,3.276,0,0,1,.55,1.87,2.012,2.012,0,0,1-.259,1.169,1.062,1.062,0,0,1-.68.429,4.81,4.81,0,0,1-.879.078h-4.22v.448a1.871,1.871,0,0,0,.73,1.549Zm20.145-14.5c-2.039,2.975-4.08,5.972-6.124,8.957l3.742,5.482a.9.9,0,0,1,.1.23,1.1,1.1,0,0,1,.033.23,1.12,1.12,0,0,1,0,.263.865.865,0,0,1-.131.328,1.565,1.565,0,0,1-.23.3,2.333,2.333,0,0,1-.329.3,2.642,2.642,0,0,1-.394.23,3.006,3.006,0,0,1-.363.164,2.427,2.427,0,0,1-.328.1,1.07,1.07,0,0,1-.2.033.977.977,0,0,1-.263-.033,1.741,1.741,0,0,1-.23-.066,1.1,1.1,0,0,1-.23-.1.943.943,0,0,1-.161-.131c-.124-.125-1.33-1.955-2.957-4.468L99.3,94.338a.647.647,0,0,1-.131.131,1.1,1.1,0,0,1-.3.131,1.123,1.123,0,0,1-.2.066.862.862,0,0,1-.3,0,2.434,2.434,0,0,1-.46-.1,2.575,2.575,0,0,1-.46-.2,2.7,2.7,0,0,1-.526-.394,1.8,1.8,0,0,1-.328-.363,1.362,1.362,0,0,1-.131-.262.9.9,0,0,1-.066-.263.806.806,0,0,1,.033-.3.847.847,0,0,1,.164-.3c.159-.19,1.614-2.343,3.707-5.462C98,83.668,96.456,81.4,96.3,81.211a.894.894,0,0,1-.2-.394.88.88,0,0,1,0-.328.907.907,0,0,1,.066-.2,1.481,1.481,0,0,1,.2-.328,1.914,1.914,0,0,1,.3-.3,3.1,3.1,0,0,1,.558-.394,2.066,2.066,0,0,1,.69-.263,1.7,1.7,0,0,1,.559,0,.677.677,0,0,1,.363.131.544.544,0,0,1,.131.164l3.286,4.9a88.587,88.587,0,0,1,5.451-8.185,1.633,1.633,0,0,1,.394-.164,1.477,1.477,0,0,1,.493-.033,1.86,1.86,0,0,1,.559.164,2.808,2.808,0,0,1,.852.526,1.4,1.4,0,0,1,.46.624.952.952,0,0,1,.033.493A.924.924,0,0,1,110.323,77.991Z" transform="translate(-58.5 -58.5)"/></svg>