<svg xmlns="http://www.w3.org/2000/svg" width="58.568" height="58.568" viewBox="0 0 58.568 58.568"><defs><style>.a{fill:#c36a58;}</style></defs><path class="a" d="M224.113,219.5l9.947-5.729-9.947-5.729Zm0,0" transform="translate(-198.697 -184.484)"/><path class="a" d="M29.284,0A29.284,29.284,0,1,0,58.568,29.284,29.287,29.287,0,0,0,29.284,0Zm18.3,29.314s0,5.939-.753,8.8A4.585,4.585,0,0,1,43.6,41.342c-2.864.754-14.319.754-14.319.754s-11.425,0-14.319-.784a4.586,4.586,0,0,1-3.226-3.226c-.754-2.833-.754-8.8-.754-8.8s0-5.939.754-8.8a4.679,4.679,0,0,1,3.226-3.256c2.864-.754,14.319-.754,14.319-.754s11.455,0,14.319.784a4.586,4.586,0,0,1,3.226,3.226c.784,2.864.753,8.832.753,8.832Zm0,0"/></svg>