<svg xmlns="http://www.w3.org/2000/svg" width="57.51" height="57.5" viewBox="0 0 57.51 57.5"><defs><style>.a{fill:#2d455d;}</style></defs><g transform="translate(0.005 0.01)"><path class="a" d="M1025.44,526.4a.514.514,0,0,1,0-.641Z" transform="translate(-969.35 -497.861)"/><path class="a" d="M1025.44,545.4a.514.514,0,0,1,0-.641Z" transform="translate(-969.35 -515.793)"/><path class="a" d="M525.76,1025.441a.514.514,0,0,1,.641,0Z" transform="translate(-497.856 -969.355)"/><path class="a" d="M544.76,1025.547a.39.39,0,0,1,.534,0Z" transform="translate(-515.788 -969.461)"/><path class="a" d="M1025.527,564.086c-.015-.122-.024-.242.093-.326v.32C1025.593,564.153,1025.563,564.155,1025.527,564.086Z" transform="translate(-969.529 -533.726)"/><path class="a" d="M1025.6,506.969c-.01-.087-.026-.176.09-.208v.214Q1025.64,507.084,1025.6,506.969Z" transform="translate(-969.601 -479.929)"/><path class="a" d="M1025.72,510.464a.482.482,0,0,1,.09.005v.214c-.035.073-.065.071-.089-.006C1025.721,510.606,1025.721,510.535,1025.72,510.464Z" transform="translate(-969.719 -483.425)"/><path class="a" d="M1025.675,514.249a.534.534,0,0,1,.089.006v.214A.2.2,0,0,1,1025.675,514.249Z" transform="translate(-969.674 -486.997)"/><path class="a" d="M1025.591,569.456c.031,0,.062,0,.093-.006v.214C1025.571,569.631,1025.583,569.543,1025.591,569.456Z" transform="translate(-969.593 -539.096)"/><path class="a" d="M506.76,1025.694c.033-.116.122-.1.208-.089s.078.055.005.089Z" transform="translate(-479.924 -969.609)"/><path class="a" d="M510.475,1025.819a.793.793,0,0,0-.005-.089h.212c.078.025.079.056.006.089Z" transform="translate(-483.425 -969.734)"/><path class="a" d="M514.256,1025.759c0-.03,0-.06-.006-.089a.194.194,0,0,1,.22.089Z" transform="translate(-486.993 -969.673)"/><path class="a" d="M563.76,1025.77a.2.2,0,0,1,.219-.089c.069.034.067.064-.006.089Z" transform="translate(-533.721 -969.685)"/><path class="a" d="M567.55,1025.729c0-.03,0-.06.006-.089.087-.01.172-.017.208.089Z" transform="translate(-537.298 -969.643)"/><path class="a" d="M1050.353,523.674a.546.546,0,0,1,0-.674Z" transform="translate(-992.858 -495.256)"/><path class="a" d="M1050.353,547.674a.546.546,0,0,1,0-.674Z" transform="translate(-992.858 -517.908)"/><path class="a" d="M515,1050.3a.535.535,0,0,1,.674,0Z" transform="translate(-487.701 -992.806)"/><path class="a" d="M547,1050.349a.545.545,0,0,1,.674,0Z" transform="translate(-517.903 -992.859)"/><path class="a" d="M1050.42,505.387c-.13-.112-.169-.225,0-.337Z" transform="translate(-992.925 -478.315)"/><path class="a" d="M1050.779,571.225c-.13-.075-.112-.149,0-.225Z" transform="translate(-993.284 -540.559)"/><path class="a" d="M571,1050.783c.075-.112.149-.13.225,0Z" transform="translate(-540.554 -993.293)"/><path class="a" d="M86.645,55.548c-.1-.112-.046-.25-.056-.377a23.141,23.141,0,0,0-.45-3.939,29.019,29.019,0,0,0-8.222-14.267,28.567,28.567,0,0,0-9.048-5.9,23.35,23.35,0,0,0-8.812-1.911c-1.531,0-3.061-.034-4.592.012a19.978,19.978,0,0,0-4.215.511A28.937,28.937,0,0,0,36.864,38a28.559,28.559,0,0,0-5.81,8.975,23.315,23.315,0,0,0-1.894,8.759c0,1.531-.036,3.061.012,4.592a20.978,20.978,0,0,0,.519,4.271,28.863,28.863,0,0,0,4.948,10.587A29.713,29.713,0,0,0,41.1,81.509a28.657,28.657,0,0,0,6.87,3.628,20.752,20.752,0,0,0,5.2,1.316c.795.077,1.6.062,2.386.187h.9a.886.886,0,0,1,.674,0h1.124a.884.884,0,0,1,.674,0H59.6a.147.147,0,0,1,.225,0h.337c.133-.1.288-.046.433-.056a24.14,24.14,0,0,0,2.837-.229,28.136,28.136,0,0,0,9.273-3.515A29.789,29.789,0,0,0,80.554,76a28.153,28.153,0,0,0,4.241-7.217,22.414,22.414,0,0,0,1.674-6.135c.081-.756.053-1.521.188-2.272v-.558a.147.147,0,0,1,0-.225v-.674a.884.884,0,0,1,0-.674v-.674a.884.884,0,0,1,0-.674v-.674a.261.261,0,0,1,0-.337Zm-13.239-9.61c.038.2-.143.241-.246.323q-7.439,5.917-14.882,11.833a.489.489,0,0,1-.746-.015q-7.412-5.906-14.84-11.8c-.109-.087-.269-.137-.292-.343Zm2.745,22.11a7.6,7.6,0,0,1-.022.787,1.1,1.1,0,0,1-.994,1.046,4.163,4.163,0,0,1-.618.021H41.3c-1.286,0-1.63-.337-1.63-1.63q0-10.184,0-20.368a1.1,1.1,0,0,1,.095-.609c.66.522,1.3,1.027,1.942,1.534L56.863,60.863a1.389,1.389,0,0,0,2.1,0q8.33-6.6,16.652-13.215a1.092,1.092,0,0,1,.457-.3.967.967,0,0,1,.078.613Q76.154,58.005,76.151,68.049Z" transform="translate(-29.15 -29.15)"/></g></svg>