<svg xmlns="http://www.w3.org/2000/svg" width="56.998" height="57" viewBox="0 0 56.998 57"><defs><style>.a{fill:#2d455d;}</style></defs><path class="a" d="M95.676,65.323A24.991,24.991,0,0,0,94.411,58.4,28.644,28.644,0,0,0,72.042,38.986c-.91-.161-1.837-.121-2.747-.266h-.222c-.071.076-.165.052-.252.057h-.2c-.109-.013-.227.038-.323-.057H66.183c-.126.107-.276.036-.413.057h-.214c-.09-.007-.189.023-.263-.057h-.334c-.82.139-1.652.1-2.469.243a29.46,29.46,0,0,0-8.5,2.852,27.818,27.818,0,0,0-8.344,6.549,28.273,28.273,0,0,0-6.7,14.136c-.135.784-.076,1.582-.239,2.36V65.3c.077.071.052.165.057.252v.2c-.014.109.038.227-.057.323V68.2c.107.126.037.276.057.413v.213c-.007.09.023.189-.057.263v.445c.151.779.107,1.578.239,2.361a29.293,29.293,0,0,0,2.927,8.652,28.6,28.6,0,0,0,6.516,8.234,27.888,27.888,0,0,0,8.846,5.247A25.141,25.141,0,0,0,63.926,95.6a44.614,44.614,0,0,0,5.268.075,25.32,25.32,0,0,0,8.893-2.027,28.293,28.293,0,0,0,9.86-6.79,28.684,28.684,0,0,0,6.9-12.337A30.582,30.582,0,0,0,95.676,65.323ZM81.6,78.608a12.133,12.133,0,0,1-3.4,2.734,8.324,8.324,0,0,1-3.314.73,14.668,14.668,0,0,1-5.671-1.681A33.312,33.312,0,0,1,54.058,65.684a14.861,14.861,0,0,1-1.789-4.923,7.462,7.462,0,0,1,2.2-6.424q.75-.782,1.535-1.535a1.238,1.238,0,0,1,1.985.011q2.526,2.506,5.033,5.031a1.25,1.25,0,0,1-.01,2.027c-.925.936-1.863,1.859-2.789,2.793a2.584,2.584,0,0,0-.261,3.73A37.389,37.389,0,0,0,68.3,74.566a2.582,2.582,0,0,0,3.564-.292c.906-.9,1.795-1.822,2.7-2.729a1.292,1.292,0,0,1,2.144,0q2.459,2.455,4.91,4.918A1.282,1.282,0,0,1,81.6,78.608Z" transform="translate(-38.71 -38.72)"/></svg>