<svg xmlns="http://www.w3.org/2000/svg" xmlns:xlink="http://www.w3.org/1999/xlink" width="66.507" height="66.507" viewBox="0 0 66.507 66.507"><defs><style>.a{fill:url(#a);}</style><linearGradient id="a" x1="1.408" y1="1.293" x2="-0.949" y2="0.291" gradientUnits="objectBoundingBox"><stop offset="0" stop-color="#2c4491"/><stop offset="0.347" stop-color="#3167ab"/><stop offset="1" stop-color="#39a9dd"/></linearGradient></defs><path class="a" d="M33.254,0A33.254,33.254,0,1,0,66.507,33.254,33.257,33.257,0,0,0,33.254,0ZM49.936,25.443v4.5a15.712,15.712,0,0,1-9.614-3.267l.032,13.859A11.609,11.609,0,0,1,36.871,48.8a11.852,11.852,0,0,1-6.621,3.311,12.2,12.2,0,0,1-1.788.131,11.891,11.891,0,0,1-7.288-2.464,12.092,12.092,0,0,1-1.12-.978,11.652,11.652,0,0,1-.526-16.068,11.89,11.89,0,0,1,8.935-4,12.2,12.2,0,0,1,1.788.132v6.3a5.606,5.606,0,1,0,3.856,5.326l.007-9.281V14.265h6.2a9.6,9.6,0,0,0,9.6,9.509s.019,0,.018,0v1.671Z"/></svg>