<svg xmlns="http://www.w3.org/2000/svg" width="66.507" height="66.507" viewBox="0 0 66.507 66.507"><defs><style>.a{fill:#2d455d;}</style></defs><path class="a" d="M33.254,0A33.254,33.254,0,1,0,66.507,33.254,33.257,33.257,0,0,0,33.254,0ZM48.437,25.928q.022.491.022.986c0,10.086-7.677,21.716-21.717,21.717h0a21.6,21.6,0,0,1-11.7-3.429,15.524,15.524,0,0,0,1.821.106,15.315,15.315,0,0,0,9.48-3.267,7.641,7.641,0,0,1-7.131-5.3,7.607,7.607,0,0,0,3.447-.131,7.635,7.635,0,0,1-6.123-7.482c0-.035,0-.065,0-.1a7.58,7.58,0,0,0,3.457.954,7.639,7.639,0,0,1-2.363-10.19,21.67,21.67,0,0,0,15.733,7.975,7.637,7.637,0,0,1,13.006-6.961,15.309,15.309,0,0,0,4.847-1.853,7.662,7.662,0,0,1-3.357,4.222,15.223,15.223,0,0,0,4.383-1.2,15.511,15.511,0,0,1-3.807,3.953Zm0,0"/></svg>