<?xml version="1.0" encoding="utf-8"?>
<!-- Generator: Adobe Illustrator 24.0.2, SVG Export Plug-In . SVG Version: 6.00 Build 0)  -->
<svg version="1.1" id="Capa_1" xmlns="http://www.w3.org/2000/svg" xmlns:xlink="http://www.w3.org/1999/xlink" x="0px" y="0px"
	 viewBox="0 0 66.1 66.1" style="enable-background:new 0 0 66.1 66.1;" xml:space="preserve">
<style type="text/css">
	.st0{clip-path:url(#SVGID_2_);}
	.st1{fill:url(#SVGID_3_);}
	.st2{fill:#FFFFFF;}
	.st3{opacity:0.57;fill:url(#SVGID_4_);}
	.st4{opacity:0.57;fill:url(#SVGID_5_);}
	.st5{fill:#C82224;}
	.st6{opacity:0.57;fill:url(#SVGID_6_);}
</style>
<g>
	<defs>
		<circle id="SVGID_1_" cx="32.9" cy="33.3" r="32.2"/>
	</defs>
	<clipPath id="SVGID_2_">
		<use xlink:href="#SVGID_1_"  style="overflow:visible;"/>
	</clipPath>
	<g class="st0">
		<linearGradient id="SVGID_3_" gradientUnits="userSpaceOnUse" x1="0.5559" y1="33.2582" x2="65.2534" y2="33.2582">
			<stop  offset="0" style="stop-color:#620D0E"/>
			<stop  offset="0.2756" style="stop-color:#7A1213"/>
			<stop  offset="0.8554" style="stop-color:#B81F20"/>
			<stop  offset="1" style="stop-color:#C82224"/>
		</linearGradient>
		<rect x="0.6" y="-3.1" class="st1" width="64.7" height="72.8"/>
		<g>
			<g>
				<path class="st2" d="M45.9,15.9c-0.6-0.2-1.2-0.4-1.7-0.5C45,15.5,45.5,15.6,45.9,15.9z"/>
				<path class="st2" d="M44.8,26c-0.1,0.2-0.2,0.3-0.2,0.5c0-0.1,0.1-0.3,0.1-0.4c0-0.2,0.2-1-0.4-1.8c0-0.1-0.6-1.2-1.6-1.3
					c-1-0.1-1.8,0-2.4,0.6c-2.6,2.2-4.3,4.3-6.1,6.3c-0.2,0.3-0.5,0.6-0.9,0.9c-0.2,0.1-1-0.6-1-0.7c-1.5-1.5-2.2-2.1-3.6-3.6
					c0,0-0.4-0.2-0.3-0.5c0-0.2,0.7-0.9,0.7-0.9l1.1-1.1c1.4-1.7,3-3.5,4.2-4.8c1.8-1.9,2.5-2.3,3.7-3.1c0.7-0.5,1.8-0.8,2.3-0.9
					c1.7-0.3,2.9-0.1,3.6,0c-0.2,0-0.4-0.1-0.6-0.1c1,1,2.7,3.2,3,5.8C46.6,22.8,45,25.5,44.8,26z"/>
				<linearGradient id="SVGID_4_" gradientUnits="userSpaceOnUse" x1="28.2426" y1="22.9495" x2="46.3749" y2="22.9495">
					<stop  offset="0" style="stop-color:#FFFFFF;stop-opacity:0"/>
					<stop  offset="7.671446e-02" style="stop-color:#F8F8F8;stop-opacity:7.709130e-02"/>
					<stop  offset="0.188" style="stop-color:#E5E5E5;stop-opacity:0.1889"/>
					<stop  offset="0.3204" style="stop-color:#C6C5C5;stop-opacity:0.3219"/>
					<stop  offset="0.469" style="stop-color:#9B9999;stop-opacity:0.4713"/>
					<stop  offset="0.6311" style="stop-color:#636061;stop-opacity:0.6342"/>
					<stop  offset="0.7961" style="stop-color:#231F20;stop-opacity:0.8"/>
					<stop  offset="1" style="stop-color:#231F20"/>
				</linearGradient>
				<path class="st3" d="M44.8,26c-0.1,0.2-0.2,0.3-0.2,0.5c0-0.1,0.1-0.3,0.1-0.4c0-0.2,0.2-1-0.4-1.8c0-0.1-0.6-1.2-1.6-1.3
					c-1-0.1-1.8,0-2.4,0.6c-2.6,2.2-4.3,4.3-6.1,6.3c-0.2,0.3-0.5,0.6-0.9,0.9c-0.2,0.1-1-0.6-1-0.7c-1.5-1.5-2.2-2.1-3.6-3.6
					c0,0-0.4-0.2-0.3-0.5c0-0.2,0.7-0.9,0.7-0.9l1.1-1.1c1.4-1.7,3-3.5,4.2-4.8c1.8-1.9,2.5-2.3,3.7-3.1c0.7-0.5,1.8-0.8,2.3-0.9
					c1.7-0.3,2.9-0.1,3.6,0c-0.2,0-0.4-0.1-0.6-0.1c1,1,2.7,3.2,3,5.8C46.6,22.8,45,25.5,44.8,26z"/>
			</g>
			<path class="st2" d="M32.5,40c-1.6,2.2-3.8,3.7-6.3,3.8c-0.7,0-1.3,0-1.9-0.2l-3.5-4.9c-0.6-0.8-1.5-1.8-1.7-2.1
				c-0.6-1,1.3-2.4,2.1-3c2.1-1.5,3.7-2.8,5.3-0.9l5.6,7.7L32.5,40z"/>
			<linearGradient id="SVGID_5_" gradientUnits="userSpaceOnUse" x1="19.0319" y1="37.8372" x2="32.5111" y2="37.8372">
				<stop  offset="0" style="stop-color:#FFFFFF;stop-opacity:0"/>
				<stop  offset="7.671446e-02" style="stop-color:#F8F8F8;stop-opacity:7.709130e-02"/>
				<stop  offset="0.188" style="stop-color:#E5E5E5;stop-opacity:0.1889"/>
				<stop  offset="0.3204" style="stop-color:#C6C5C5;stop-opacity:0.3219"/>
				<stop  offset="0.469" style="stop-color:#9B9999;stop-opacity:0.4713"/>
				<stop  offset="0.6311" style="stop-color:#636061;stop-opacity:0.6342"/>
				<stop  offset="0.7961" style="stop-color:#231F20;stop-opacity:0.8"/>
				<stop  offset="1" style="stop-color:#231F20"/>
			</linearGradient>
			<path class="st4" d="M32.5,40c-1.6,2.2-3.8,3.7-6.3,3.8c-0.7,0-1.3,0-1.9-0.2l-3.5-4.9c-0.6-0.8-1.5-1.8-1.7-2.1
				c-0.6-1,1.3-2.4,2.1-3c2.1-1.5,3.7-2.8,5.3-0.9l5.6,7.7L32.5,40z"/>
			<g id="XMLID_2_">
				<path class="st2" d="M53.1,25.1c-0.1,2-0.6,2.9-1,3.4c-1.6,2.5-3.6,5.1-3.6,5.1L35.9,48.4c-1,1.2-2.2,1.8-3.5,1.9
					c-1.5,0.1-3.1-0.6-4.3-2.1l-3.7-4.5c0.6,0.1,1.3,0.2,1.9,0.2c2.5-0.1,4.7-1.6,6.3-3.8c0,0,9.6-9,12.1-13.5
					c0.1-0.2,0.2-0.3,0.2-0.5c0.2-0.5,1.7-3.2,1.5-5c-0.3-2.5-2-4.8-3-5.8c0.2,0,0.4,0,0.6,0.1c0.1,0,0.1,0,0.2,0c0,0,0,0,0,0
					c0.5,0.1,1.1,0.3,1.7,0.5c1,0.4,2,0.9,2.7,1.3c1.1,0.7,1.7,1.5,2.3,2.2C51.6,20,53.2,22.7,53.1,25.1z"/>
				<path class="st5" d="M44.2,15.3c-0.1,0-0.1,0-0.2,0C44,15.3,44.1,15.3,44.2,15.3z"/>
			</g>
			<circle class="st2" cx="18.6" cy="28.4" r="4.3"/>
			<linearGradient id="SVGID_6_" gradientUnits="userSpaceOnUse" x1="14.3738" y1="28.3932" x2="22.9231" y2="28.3932">
				<stop  offset="0" style="stop-color:#FFFFFF;stop-opacity:0"/>
				<stop  offset="7.671446e-02" style="stop-color:#F8F8F8;stop-opacity:7.709130e-02"/>
				<stop  offset="0.188" style="stop-color:#E5E5E5;stop-opacity:0.1889"/>
				<stop  offset="0.3204" style="stop-color:#C6C5C5;stop-opacity:0.3219"/>
				<stop  offset="0.469" style="stop-color:#9B9999;stop-opacity:0.4713"/>
				<stop  offset="0.6311" style="stop-color:#636061;stop-opacity:0.6342"/>
				<stop  offset="0.7961" style="stop-color:#231F20;stop-opacity:0.8"/>
				<stop  offset="1" style="stop-color:#231F20"/>
			</linearGradient>
			<circle class="st6" cx="18.6" cy="28.4" r="4.3"/>
		</g>
	</g>
</g>
</svg>
