<svg xmlns="http://www.w3.org/2000/svg" xmlns:xlink="http://www.w3.org/1999/xlink" width="66.507" height="66.507" viewBox="0 0 66.507 66.507"><defs><style>.a{fill:url(#a);}</style><linearGradient id="a" x1="1.408" y1="1.293" x2="-0.949" y2="0.291" gradientUnits="objectBoundingBox"><stop offset="0" stop-color="#2c4491"/><stop offset="0.347" stop-color="#3167ab"/><stop offset="1" stop-color="#39a9dd"/></linearGradient></defs><path class="a" d="M224.113,221.051l11.3-6.506-11.3-6.506Zm0,0" transform="translate(-195.252 -181.291)"/><path class="a" d="M33.254,0A33.254,33.254,0,1,0,66.507,33.254,33.257,33.257,0,0,0,33.254,0ZM54.032,33.288s0,6.744-.855,10a5.207,5.207,0,0,1-3.663,3.662c-3.252.856-16.26.856-16.26.856s-12.974,0-16.26-.89a5.208,5.208,0,0,1-3.663-3.663c-.856-3.217-.856-10-.856-10s0-6.744.856-10a5.313,5.313,0,0,1,3.663-3.7c3.252-.856,16.26-.856,16.26-.856s13.008,0,16.26.89a5.208,5.208,0,0,1,3.663,3.663c.89,3.252.855,10.029.855,10.029Zm0,0"/></svg>